PathFileType	4	(X/Y/Z)	/Users/itak/Documents/Research/Walk-IL/dataset/trc/00502_00183.trc
DataRate	CameraRate	NumFrames	NumMarkers	Units	OrigDataRate	OrigDataStartFrame	OrigNumFrames
100.000000	100.000000	4	53	mm	100.000000	176	706
Frame#	Time	RPSI			LPSI			L3			STRN			T10			C7			CLAV			RBAK			LBAK			LSHO			LUPA			LAEL			LAOL			LWTS			LWPS			LFRA			LIFD			LHPS			LHTS			RSHO			RUPA			RAEL			RAOL			RWTS			RWPS			RFRA			RIFD			RHTS			RHPS			RBHD			LFHD			RFHD			LBHD			LHIP			RHIP			RASI			LASI			LKNE			LTHI			LANK			LTIP			LTOE			LMT1			LMT5			LHEE			RKNE			RTHI			RANK			RTIP			RTOE			RMT1			RMT5			RHEE			
		X1	Y1	Z1	X2	Y2	Z2	X3	Y3	Z3	X4	Y4	Z4	X5	Y5	Z5	X6	Y6	Z6	X7	Y7	Z7	X8	Y8	Z8	X9	Y9	Z9	X10	Y10	Z10	X11	Y11	Z11	X12	Y12	Z12	X13	Y13	Z13	X14	Y14	Z14	X15	Y15	Z15	X16	Y16	Z16	X17	Y17	Z17	X18	Y18	Z18	X19	Y19	Z19	X20	Y20	Z20	X21	Y21	Z21	X22	Y22	Z22	X23	Y23	Z23	X24	Y24	Z24	X25	Y25	Z25	X26	Y26	Z26	X27	Y27	Z27	X28	Y28	Z28	X29	Y29	Z29	X30	Y30	Z30	X31	Y31	Z31	X32	Y32	Z32	X33	Y33	Z33	X34	Y34	Z34	X35	Y35	Z35	X36	Y36	Z36	X37	Y37	Z37	X38	Y38	Z38	X39	Y39	Z39	X40	Y40	Z40	X41	Y41	Z41	X42	Y42	Z42	X43	Y43	Z43	X44	Y44	Z44	X45	Y45	Z45	X46	Y46	Z46	X47	Y47	Z47	X48	Y48	Z48	X49	Y49	Z49	X50	Y50	Z50	X51	Y51	Z51	X52	Y52	Z52	X53	Y53	Z53	

177	1.76	-1130.4775390625	972.2750854492188	-438.3811340332031	-1070.449096679688	968.0934448242188	-546.83203125	-1101.02783203125	1041.864501953125	-497.5113220214844	-893.8041381835938	1198.774047851562	-412.3084411621094	-1112.651489257812	1146.571166992188	-497.651611328125	-1067.743896484375	1375.719360351562	-476.1123046875	-924.9404296875	1294.845458984375	-423.3925476074219	-1146.272338867188	1254.646484375	-414.4051513671875	-1061.33154296875	1323.632446289062	-567.9794311523438	-943.6927490234375	1366.399291992188	-601.7341918945312	-933.9427490234375	1240.376098632812	-663.2323608398438	-919.0188598632812	1029.602294921875	-682.0546264648438	-1014.3115234375	1023.551330566406	-652.796875	-858.6736450195312	842.304443359375	-608.60791015625	-911.8469848632812	806.5499877929688	-677.1862182617188	-905.0966186523438	946.1869506835938	-676.0805053710938	-860.2354125976562	685.3194580078125	-596.43505859375	-893.1280517578125	752.3673706054688	-662.4686279296875	-842.920166015625	763.8560791015625	-621.1478881835938	-1068.603149414062	1366.951171875	-317.3399658203125	-1104.69970703125	1299.907836914062	-269.0811767578125	-1109.564331054688	1031.8720703125	-223.2082672119141	-1153.133178710938	1015.390258789062	-271.1087341308594	-999.4654541015625	831.14794921875	-240.8143463134766	-1080.769287109375	807.8661499023438	-205.0504302978516	-1104.939331054688	977.0435180664062	-215.7921752929688	-998.8815307617188	670.2777099609375	-242.0491180419922	-988.5988159179688	736.099609375	-216.5493316650391	-1058.25634765625	733.4827880859375	-202.7663879394531	-1061.33154296875	1525.278442382812	-380.7646179199219	-886.3338623046875	1591.139770507812	-454.15869140625	-941.7066040039062	1580.927612304688	-339.4624633789062	-1005.82470703125	1533.724243164062	-529.5394897460938	-914.2192993164062	891.134521484375	-610.7777099609375	-1096.729370117188	878.8252563476562	-277.6846618652344	-974.71337890625	920.6629638671875	-291.1755676269531	-867.6365356445312	924.9035034179688	-507.8524475097656	-938.09521484375	467.4486694335938	-550.9456176757812	-908.0282592773438	623.4605102539062	-572.1304321289062	-1059.491577148438	50.46737289428711	-573.9698486328125	-973.0171508789062	317.1829223632812	-563.2922973632812	-901.18115234375	37.99948120117188	-439.86328125	-984.8231811523438	41.99608612060547	-441.7529602050781	-954.88818359375	44.66004180908203	-539.7070922851562	-1126.688598632812	47.89709854125977	-534.43310546875	-1087.489624023438	491.3854064941406	-283.2911071777344	-1075.350219726562	751.247802734375	-255.6311950683594	-1168.957153320312	51.82658767700195	-316.2595520019531	-1092.671997070312	344.6090087890625	-291.1065063476562	-965.5916748046875	44.5033073425293	-298.4700622558594	-1018.272583007812	51.59651565551758	-352.9154052734375	-1065.32177734375	45.47574615478516	-267.9543151855469	-1204.447631835938	46.63483428955078	-378.2750854492188	
178	1.77	-1130.634521484375	972.3614501953125	-440.1996154785156	-1070.673095703125	968.1129150390625	-548.5953369140625	-1100.631958007812	1042.2109375	-499.1755981445312	-893.380859375	1198.825561523438	-413.9700317382812	-1112.14013671875	1146.875122070312	-499.2897644042969	-1067.15869140625	1376.000610351562	-477.6058959960938	-924.4019165039062	1294.891723632812	-424.9917907714844	-1145.872924804688	1254.93798828125	-416.0682983398438	-1060.794311523438	1323.976928710938	-569.5626831054688	-943.1139526367188	1366.661499023438	-603.206298828125	-933.5184326171875	1240.748901367188	-664.8331298828125	-918.9254150390625	1029.934326171875	-683.81494140625	-1014.129333496094	1024.017822265625	-654.5288696289062	-858.7575073242188	842.6116333007812	-610.194580078125	-911.9273071289062	806.9129028320312	-678.84716796875	-905.07275390625	946.5122680664062	-677.7913208007812	-860.2997436523438	685.6578369140625	-598.0534057617188	-893.2277221679688	752.7058715820312	-664.088134765625	-843.0394897460938	764.2476806640625	-622.7067260742188	-1068.081176757812	1367.009643554688	-318.864013671875	-1104.228149414062	1299.946411132812	-270.6701049804688	-1109.26318359375	1031.968994140625	-224.7265167236328	-1152.79736328125	1015.45556640625	-272.6769409179688	-999.0953979492188	831.2916870117188	-241.9419403076172	-1080.507202148438	808.0144653320312	-206.3932495117188	-1104.647705078125	977.1362915039062	-217.2584075927734	-998.33544921875	670.4501342773438	-242.8547973632812	-988.2569580078125	736.3174438476562	-217.4565277099609	-1057.9541015625	733.6978149414062	-203.8903198242188	-1060.599487304688	1525.385375976562	-381.8811340332031	-885.3963012695312	1591.1357421875	-455.0062255859375	-940.8590087890625	1580.68896484375	-340.3795166015625	-1004.978637695312	1534.157592773438	-530.6367797851562	-914.2073364257812	890.8216552734375	-612.1567993164062	-1096.878051757812	879.165771484375	-279.1338195800781	-975.0934448242188	921.2998046875	-292.7264099121094	-867.654541015625	924.9552001953125	-509.233154296875	-937.8950805664062	467.2617797851562	-551.5142211914062	-907.9466552734375	623.301025390625	-572.9605102539062	-1059.46484375	50.43603515625	-573.9989624023438	-972.9273681640625	317.0050048828125	-563.7102661132812	-901.1978149414062	37.994873046875	-439.8451538085938	-984.8142700195312	42.02670288085938	-441.7609558105469	-954.8756713867188	44.64461135864258	-539.73681640625	-1126.684448242188	47.84159469604492	-534.5108032226562	-1084.794189453125	491.6610412597656	-283.7432861328125	-1075.052001953125	751.6976928710938	-256.8572387695312	-1168.68896484375	52.5935173034668	-316.1743469238281	-1090.076293945312	344.7952270507812	-291.0684814453125	-965.4749145507812	44.45950317382812	-298.3981628417969	-1018.087646484375	51.61575698852539	-352.8860168457031	-1065.143310546875	45.61206436157227	-267.9141845703125	-1204.21630859375	47.70565032958984	-378.2021789550781	
179	1.78	-1130.798706054688	972.4745483398438	-442.0214233398438	-1070.89404296875	968.1634521484375	-550.3621826171875	-1100.263427734375	1042.561157226562	-500.8595886230469	-892.984375	1198.889038085938	-415.5994567871094	-1111.635375976562	1147.192260742188	-500.9420166015625	-1066.565185546875	1376.291870117188	-479.1201171875	-923.8477783203125	1294.953247070312	-426.5618591308594	-1145.483154296875	1255.239624023438	-417.7581481933594	-1060.228759765625	1324.328491210938	-571.157958984375	-942.4920654296875	1366.93603515625	-604.6594848632812	-933.0651245117188	1241.140258789062	-666.4338989257812	-918.84423828125	1030.281005859375	-685.6068725585938	-1013.9697265625	1024.517578125	-656.2971801757812	-858.8634643554688	842.9594116210938	-611.7969970703125	-911.9915771484375	807.3031005859375	-680.541015625	-905.0574951171875	946.86669921875	-679.5345458984375	-860.386474609375	686.0178833007812	-599.68115234375	-893.3324584960938	753.05615234375	-665.7319946289062	-843.1738891601562	764.6557006835938	-624.2589721679688	-1067.581909179688	1367.083618164062	-320.3972778320312	-1103.792236328125	1300.004516601562	-272.2754516601562	-1108.972045898438	1032.07763671875	-226.2564849853516	-1152.477172851562	1015.532470703125	-274.2550354003906	-998.7205810546875	831.4612426757812	-243.0323028564453	-1080.24658203125	808.1773071289062	-207.7452392578125	-1104.369018554688	977.2560424804688	-218.7273712158203	-997.76806640625	670.6519775390625	-243.6126098632812	-987.9068603515625	736.555419921875	-218.3197479248047	-1057.65380859375	733.939697265625	-205.0045928955078	-1059.86962890625	1525.51904296875	-383.0034790039062	-884.4553833007812	1591.132446289062	-455.8639831542969	-940.0194702148438	1580.478149414062	-341.3099365234375	-1004.112060546875	1534.595336914062	-531.7523803710938	-914.1759643554688	890.5078735351562	-613.5208740234375	-1097.0244140625	879.5420532226562	-280.5830383300781	-975.5106811523438	921.9393920898438	-294.2579040527344	-867.6689453125	925.0199584960938	-510.5756225585938	-937.739013671875	467.1018371582031	-552.1636352539062	-907.8790893554688	623.170654296875	-573.8409423828125	-1059.434326171875	50.39970779418945	-574.0342407226562	-972.8887939453125	316.8451843261719	-564.2008666992188	-901.2108764648438	37.9914665222168	-439.8365478515625	-984.7958984375	42.06686019897461	-441.7809448242188	-954.865478515625	44.62593460083008	-539.7744750976562	-1126.681762695312	47.79389572143555	-534.585205078125	-1081.869140625	491.9519653320312	-284.1560668945312	-1074.77685546875	752.1437377929688	-258.0804748535156	-1168.376831054688	53.47503280639648	-316.0777282714844	-1087.277465820312	345.0168151855469	-290.9462585449219	-965.3289794921875	44.40860366821289	-298.3068237304688	-1017.870788574219	51.65188598632812	-352.8421325683594	-1064.927978515625	45.76674270629883	-267.8560180664062	-1203.9462890625	48.93146514892578	-378.1039428710938	
180	1.79	-1130.971557617188	972.6041259765625	-443.8393859863281	-1071.113159179688	968.236572265625	-552.1304931640625	-1099.924926757812	1042.913208007812	-502.5596923828125	-892.6141357421875	1198.956298828125	-417.1927185058594	-1111.144287109375	1147.52392578125	-502.6029968261719	-1065.964965820312	1376.58984375	-480.6468505859375	-923.2885131835938	1295.026489257812	-428.0980224609375	-1145.100708007812	1255.550048828125	-419.4655456542969	-1059.638549804688	1324.68701171875	-572.7484741210938	-941.8302612304688	1367.219848632812	-606.0883178710938	-932.5807495117188	1241.53857421875	-668.025146484375	-918.767822265625	1030.636108398438	-687.4215087890625	-1013.8271484375	1025.037841796875	-658.0999145507812	-858.9881591796875	843.3372802734375	-613.4150390625	-912.0325927734375	807.7103271484375	-682.262939453125	-905.0406494140625	947.241943359375	-681.3038330078125	-860.50537109375	686.3809204101562	-601.3311157226562	-893.4351196289062	753.4158325195312	-667.4038696289062	-843.3226928710938	765.056884765625	-625.817626953125	-1067.104248046875	1367.17333984375	-321.9313354492188	-1103.3935546875	1300.080200195312	-273.8884887695312	-1108.701416015625	1032.19384765625	-227.7954559326172	-1152.173828125	1015.617919921875	-275.8464050292969	-998.3421630859375	831.6583251953125	-244.0845031738281	-1079.990478515625	808.3543701171875	-209.1107940673828	-1104.114379882812	977.3994750976562	-220.1992492675781	-997.1737060546875	670.8839721679688	-244.3249359130859	-987.5473022460938	736.8187255859375	-219.1391448974609	-1057.35302734375	734.2046508789062	-206.1155090332031	-1059.142822265625	1525.674438476562	-384.131591796875	-883.5121459960938	1591.130615234375	-456.7305908203125	-939.1981811523438	1580.298583984375	-342.2541809082031	-1003.222961425781	1535.029052734375	-532.885009765625	-914.1248779296875	890.1961669921875	-614.8662719726562	-1097.169555664062	879.9541625976562	-282.0278015136719	-975.9559326171875	922.579345703125	-295.7680969238281	-867.6803588867188	925.0945434570312	-511.8860778808594	-937.6076049804688	466.9726867675781	-552.864990234375	-907.822265625	623.0553588867188	-574.7597045898438	-1059.4013671875	50.3590087890625	-574.073974609375	-972.8570556640625	316.7046203613281	-564.720458984375	-901.2205200195312	37.98907852172852	-439.8345031738281	-984.7684936523438	42.11173629760742	-441.8118286132812	-954.860107421875	44.60617446899414	-539.8173828125	-1126.680541992188	47.75229263305664	-534.654052734375	-1078.717895507812	492.2717590332031	-284.5262145996094	-1074.50244140625	752.5796508789062	-259.3033447265625	-1168.019409179688	54.48147583007812	-315.9640197753906	-1084.286254882812	345.2864685058594	-290.7325744628906	-965.1544799804688	44.35297393798828	-298.1893310546875	-1017.621215820312	51.71295928955078	-352.7765197753906	-1064.674682617188	45.94419860839844	-267.7731628417969	-1203.636840820312	50.32088851928711	-377.9798278808594	
